<?xml version="1.0" encoding="utf-8"?>
<!-- Generator: Adobe Illustrator 19.1.0, SVG Export Plug-In . SVG Version: 6.00 Build 0)  -->
<svg version="1.1" id="Layer_1" xmlns="http://www.w3.org/2000/svg" xmlns:xlink="http://www.w3.org/1999/xlink" x="0px" y="0px"
	 viewBox="-205 297 200 200" style="enable-background:new -205 297 200 200;" xml:space="preserve">
<style type="text/css">
	.st0{fill:#FFFFFF;}
	.st1{fill:#5BC2A6;}
	.st2{fill:none;stroke:#5BC2A6;stroke-miterlimit:10;}
</style>
<g>
	<path class="st0" d="M-193.7,464.4c0,2.2-0.6,3.9-1.7,5.1c-1.1,1.2-2.7,1.8-4.8,1.8h-1v7.5h-3.8V458h5.3
		C-195.7,458-193.7,460.1-193.7,464.4z M-201.1,467.8h0.7c0.9,0,1.7-0.3,2.1-0.8c0.5-0.5,0.7-1.4,0.7-2.6c0-1.1-0.2-1.9-0.6-2.4
		c-0.4-0.5-1.1-0.8-2-0.8h-0.9V467.8z"/>
	<path class="st0" d="M-181.4,470.6v8.1h-3.9V458h5.1c2.1,0,3.7,0.5,4.7,1.5s1.5,2.6,1.5,4.6c0,2.6-0.9,4.5-2.7,5.5l4,9.1h-4.1
		l-3.3-8.1H-181.4z M-181.4,467.3h1c0.9,0,1.6-0.3,2-0.8c0.4-0.5,0.6-1.3,0.6-2.3c0-1.1-0.2-1.8-0.6-2.3c-0.4-0.4-1.1-0.7-2-0.7h-1
		V467.3z"/>
	<path class="st0" d="M-164.2,478.7V458h3.6v20.8L-164.2,478.7L-164.2,478.7z"/>
	<path class="st0" d="M-143,478.7l-3.9-17.7h-0.2c0.2,1.4,0.3,2.6,0.3,3.7v13.9h-3.6V458h5.9l3.5,16.3h0.1l3.5-16.3h6v20.8h-3.7
		v-14.1c0-1.2,0.1-2.4,0.2-3.6h-0.1l-3.9,17.6H-143z"/>
	<path class="st0" d="M-111.9,478.7l-1.2-5.2h-5.4l-1.2,5.2h-3.9l5.1-20.8h5.2l5.2,20.8H-111.9z M-113.9,470.1l-1.1-4.8
		c-0.1-0.3-0.2-1-0.4-2.2c-0.2-1.2-0.4-2-0.4-2.4c-0.1,0.8-0.3,1.7-0.5,2.7s-0.7,3.2-1.5,6.7H-113.9z"/>
	<path class="st1" d="M-100.4,478.7V458h3.9v17.4h5.4v3.4L-100.4,478.7L-100.4,478.7z"/>
	<path class="st1" d="M-68.6,468.3c0,3.4-0.6,6.1-1.9,7.9s-3.1,2.8-5.5,2.8c-2.4,0-4.2-0.9-5.5-2.8c-1.3-1.8-1.9-4.5-1.9-8
		c0-3.4,0.6-6.1,1.9-7.9s3.1-2.7,5.6-2.7c2.4,0,4.2,0.9,5.5,2.8C-69.3,462.2-68.6,464.9-68.6,468.3z M-79.6,468.3
		c0,2.4,0.3,4.2,0.9,5.4c0.6,1.2,1.5,1.9,2.6,1.9c2.3,0,3.5-2.4,3.5-7.3s-1.2-7.3-3.5-7.3c-1.2,0-2.1,0.6-2.7,1.9
		C-79.3,464.1-79.6,465.9-79.6,468.3z"/>
	<path class="st1" d="M-50,478.7l-1.2-5.2h-5.4l-1.2,5.2h-3.9l5.1-20.8h5.2l5.2,20.8H-50z M-51.9,470.1l-1.1-4.8
		c-0.1-0.3-0.2-1-0.4-2.2s-0.4-2-0.4-2.4c-0.1,0.8-0.3,1.7-0.5,2.7s-0.7,3.2-1.5,6.7H-51.9z"/>
	<path class="st1" d="M-23.9,478.7h-4.7l-6.4-15h-0.2c0.2,1.1,0.4,2.4,0.4,3.7v11.3h-3.6V458h4.7l6.4,14.9h0.2
		c-0.2-1-0.3-2.2-0.3-3.5V458h3.5L-23.9,478.7L-23.9,478.7z"/>
	<path class="st1" d="M-5,473c0,1.9-0.5,3.4-1.5,4.5c-1,1-2.4,1.5-4.2,1.5s-3.3-0.4-4.6-1.1v-3.8c1.6,1,3,1.5,4.3,1.5
		c0.7,0,1.3-0.2,1.7-0.6c0.4-0.4,0.6-1,0.6-1.7s-0.2-1.3-0.7-1.9c-0.4-0.6-1.2-1.2-2.2-1.9c-0.9-0.6-1.6-1.2-2-1.8
		c-0.5-0.6-0.8-1.2-1.1-1.9c-0.3-0.7-0.4-1.5-0.4-2.4c0-1.8,0.5-3.2,1.5-4.2s2.3-1.6,4-1.6c1.6,0,3.1,0.4,4.6,1.3l-1.3,3.1
		c-0.5-0.3-0.9-0.5-1.4-0.7s-1-0.3-1.6-0.3s-1.1,0.2-1.4,0.6c-0.3,0.4-0.5,1-0.5,1.7s0.2,1.3,0.6,1.8c0.4,0.5,1.1,1.1,2.1,1.8
		c1.4,0.9,2.3,1.8,2.8,2.8C-5.3,470.7-5,471.8-5,473z"/>
</g>
<path class="st2" d="M-153.1,334.8c-0.1,0.1-0.2,0.2-0.3,0.3"/>
<path class="st2" d="M-31.9,335.1c-0.1-0.1-0.2-0.2-0.3-0.3"/>
<polygon class="st0" points="-21.8,404.2 -105,321 -188.2,404.2 -198.5,394 -105,300.5 -11.5,394 "/>
<path class="st1" d="M-36.3,429.8l-2.1-2.1c-2-2-18.7-18.7-35.5-35.5l-31.5,31.5l-31-31c-15.9,15.9-33,33-35.1,35.1l-2.1,2.1h-26.9
	v-14.5h21c6.2-6.2,23.5-23.5,38.1-38.1l5.1-5.1l31,31l31.5-31.5l5.1,5.1c15.6,15.6,32.4,32.4,38.5,38.5h21v14.5l-23.9,0L-36.3,429.8
	z"/>
<polygon class="st0" points="-105.4,385 -146.7,343.8 -136.5,333.5 -105.4,364.6 -74,333.1 -63.7,343.3 "/>
</svg>
