<?xml version="1.0" encoding="utf-8"?>
<!-- Generator: Adobe Illustrator 19.1.0, SVG Export Plug-In . SVG Version: 6.00 Build 0)  -->
<svg version="1.1" id="Layer_1" xmlns="http://www.w3.org/2000/svg" xmlns:xlink="http://www.w3.org/1999/xlink" x="0px" y="0px"
	 viewBox="0 0 200 200" style="enable-background:new 0 0 200 200;" xml:space="preserve">
<style type="text/css">
	.st0{fill:#FFFFFF;}
	.st1{fill:#5BC2A6;}
	.st2{fill:none;stroke:#5BC2A6;stroke-miterlimit:10;}
</style>
<g>
	<path class="st0" d="M11.3,167.4c0,2.2-0.6,3.9-1.7,5.1c-1.1,1.2-2.7,1.8-4.8,1.8h-1v7.5H0V161h5.3C9.3,161,11.3,163.1,11.3,167.4z
		 M3.9,170.8h0.7c0.9,0,1.7-0.3,2.1-0.8c0.5-0.5,0.7-1.4,0.7-2.6c0-1.1-0.2-1.9-0.6-2.4c-0.4-0.5-1.1-0.8-2-0.8H3.9V170.8z"/>
	<path class="st0" d="M23.6,173.6v8.1h-3.9V161h5.1c2.1,0,3.7,0.5,4.7,1.5c1,1,1.5,2.6,1.5,4.6c0,2.6-0.9,4.5-2.7,5.5l4,9.1h-4.1
		l-3.3-8.1H23.6z M23.6,170.3h1c0.9,0,1.6-0.3,2-0.8c0.4-0.5,0.6-1.3,0.6-2.3c0-1.1-0.2-1.8-0.6-2.3c-0.4-0.4-1.1-0.7-2-0.7h-1
		V170.3z"/>
	<path class="st0" d="M40.8,181.7V161h3.6v20.8H40.8z"/>
	<path class="st0" d="M62,181.7L58.1,164h-0.2c0.2,1.4,0.3,2.6,0.3,3.7v13.9h-3.6V161h5.9l3.5,16.3h0.1l3.5-16.3h6v20.8h-3.7v-14.1
		c0-1.2,0.1-2.4,0.2-3.6h-0.1l-3.9,17.6H62z"/>
	<path class="st0" d="M93.1,181.7l-1.2-5.2h-5.4l-1.2,5.2h-3.9l5.1-20.8h5.2l5.2,20.8H93.1z M91.1,173.1l-1.1-4.8
		c-0.1-0.3-0.2-1-0.4-2.2c-0.2-1.2-0.4-2-0.4-2.4c-0.1,0.8-0.3,1.7-0.5,2.7c-0.2,1-0.7,3.2-1.5,6.7H91.1z"/>
	<path class="st1" d="M104.6,181.7V161h3.9v17.4h5.4v3.4H104.6z"/>
	<path class="st1" d="M136.4,171.3c0,3.4-0.6,6.1-1.9,7.9s-3.1,2.8-5.5,2.8c-2.4,0-4.2-0.9-5.5-2.8c-1.3-1.8-1.9-4.5-1.9-8
		c0-3.4,0.6-6.1,1.9-7.9c1.3-1.8,3.1-2.7,5.6-2.7c2.4,0,4.2,0.9,5.5,2.8C135.7,165.2,136.4,167.9,136.4,171.3z M125.4,171.3
		c0,2.4,0.3,4.2,0.9,5.4c0.6,1.2,1.5,1.9,2.6,1.9c2.3,0,3.5-2.4,3.5-7.3s-1.2-7.3-3.5-7.3c-1.2,0-2.1,0.6-2.7,1.9
		C125.7,167.1,125.4,168.9,125.4,171.3z"/>
	<path class="st1" d="M155,181.7l-1.2-5.2h-5.4l-1.2,5.2h-3.9l5.1-20.8h5.2l5.2,20.8H155z M153.1,173.1l-1.1-4.8
		c-0.1-0.3-0.2-1-0.4-2.2c-0.2-1.2-0.4-2-0.4-2.4c-0.1,0.8-0.3,1.7-0.5,2.7c-0.2,1-0.7,3.2-1.5,6.7H153.1z"/>
	<path class="st1" d="M181.1,181.7h-4.7l-6.4-15h-0.2c0.2,1.1,0.4,2.4,0.4,3.7v11.3h-3.6V161h4.7l6.4,14.9h0.2
		c-0.2-1-0.3-2.2-0.3-3.5V161h3.5V181.7z"/>
	<path class="st1" d="M200,176c0,1.9-0.5,3.4-1.5,4.5c-1,1-2.4,1.5-4.2,1.5c-1.8,0-3.3-0.4-4.6-1.1v-3.8c1.6,1,3,1.5,4.3,1.5
		c0.7,0,1.3-0.2,1.7-0.6c0.4-0.4,0.6-1,0.6-1.7c0-0.7-0.2-1.3-0.7-1.9c-0.4-0.6-1.2-1.2-2.2-1.9c-0.9-0.6-1.6-1.2-2-1.8
		c-0.5-0.6-0.8-1.2-1.1-1.9c-0.3-0.7-0.4-1.5-0.4-2.4c0-1.8,0.5-3.2,1.5-4.2c1-1,2.3-1.6,4-1.6c1.6,0,3.1,0.4,4.6,1.3l-1.3,3.1
		c-0.5-0.3-0.9-0.5-1.4-0.7c-0.5-0.2-1-0.3-1.6-0.3c-0.6,0-1.1,0.2-1.4,0.6c-0.3,0.4-0.5,1-0.5,1.7c0,0.7,0.2,1.3,0.6,1.8
		c0.4,0.5,1.1,1.1,2.1,1.8c1.4,0.9,2.3,1.8,2.8,2.8C199.7,173.7,200,174.8,200,176z"/>
</g>
<g>
	<path class="st0" d="M165.6,50.4c-1.3,1,0,3,1.5,2.3l28.4-18.3c0.2-0.1,0.5,0,0.4,0.3l-2.8,16.1c-0.4,2.2-1.7,4-3.6,5.1l-31.6,18.3
		c-1.4,0.9-0.3,3,1.2,2.4l26.2-12.9c0.4-0.2,0.8,0.2,0.6,0.6l-23,39.1c-0.1,0.1-0.2,0.2-0.3,0.4l-20.9,13.4L96.9,86.7
		c-0.3-0.2-0.6-0.2-1-0.1L84.3,92c-2.5,1.2-5.5,0.5-7.3-1.5l-6.7-7.7c-1-1.2-0.5-3.1,1-3.6l8.3-2.8v0l19.7-6.6c0.5-0.2,1-0.2,1.4,0
		l19,6.4c0.4,0.1,0.9,0,1.1-0.4l10.9-16.9l1.9-2.9c0.1-0.1,0.2-0.2,0.2-0.2l64.7-45.5c0.7-0.5,1.7,0.1,1.5,1l-2.7,15.4
		c-0.1,0.5-0.3,0.9-0.7,1.2L165.6,50.4z"/>
	<path class="st1" d="M141.6,117.1l-39.1,25.1c-1.5,1-3.5,1-5.1,0l-60-38.5c-0.1-0.1-0.2-0.2-0.3-0.3L14.1,64.3
		c-0.2-0.4,0.2-0.8,0.6-0.6l26.2,12.9c1.5,0.6,2.6-1.5,1.2-2.4L10.5,55.9c-1.9-1.1-3.2-3-3.6-5.1L4.1,34.7c0-0.2,0.2-0.4,0.4-0.3
		l28.4,18.3c1.5,0.8,2.8-1.2,1.5-2.3l-31-22.7c-0.4-0.3-0.7-0.7-0.7-1.2L0,11.1c-0.2-0.9,0.8-1.4,1.5-1l64.7,45.5
		c0.1,0.1,0.2,0.2,0.2,0.2l13.2,20.5l-8.3,2.8c-1.5,0.5-2,2.4-1,3.6l6.7,7.7c1.8,2.1,4.7,2.7,7.3,1.5l11.6-5.4
		c0.3-0.1,0.7-0.1,1,0.1L141.6,117.1z"/>
</g>
<path class="st2" d="M51.9,37.8c-0.1,0.1-0.2,0.2-0.3,0.3"/>
<path class="st2" d="M173.1,38.1c-0.1-0.1-0.2-0.2-0.3-0.3"/>
</svg>
